{"title":"Kara Sevda S01E40.DVB-T.X264.ARI Greek Subs","uid":15481206,"size":427862492,"categoryP":"video","categoryS":"tv_shows","magnet":"?xt=urn:btih:6e2fc83bf4dc2cb0316657e57f1a2c5587633e01&amp;dn=Kara+Sevda+S01E40.DVB-T.X264.ARI+Greek+Subs&amp;tr=udp%3A%2F%2Ftracker.leechers-paradise.org%3A6969&amp;tr=udp%3A%2F%2Fzer0day.ch%3A1337&amp;tr=udp%3A%2F%2Fopen.demonii.com%3A1337&amp;tr=udp%3A%2F%2Ftracker.coppersurfer.tk%3A6969&amp;tr=udp%3A%2F%2Fexodus.desync.com%3A6969","seeders":5,"leechers":0,"uploader":"Aris2015","files":1,"time":1470257934,"description":"To piratebay itane offline to proi ke den mporousa na to anebaso to ep 40,\r\nomous to anebasa edo https://1337x.to/torrent/1693909/Kara-Sevda-S01E40-DVB-T-X264-ARI-Greek-Subs/ afto to site mou aresi perisotero apo to piratebay pou einai ka8e tris ke ligo offline.\r\n\r\nGeneral \r\nComplete name : Kara Sevda S01E40.DVB-T.X264.ARI.mp4 \r\nFormat : MPEG-4 \r\nFormat profile : Base Media \r\nCodec ID : isom (isom/iso2/avc1/mp41) \r\nFile size : 408 MiB \r\nDuration : 50mn 20s \r\nOverall bit rate mode : Variable \r\nOverall bit rate : 1 133 Kbps \r\nMovie name : KARA SEVDA S01 EP 40 \r\nPerformer : ARI \r\nWriting application : Lavf57.41.100 \r\n\r\nVideo \r\nID : 1 \r\nFormat : AVC \r\nFormat/Info : Advanced Video Codec \r\nFormat profile :    \r\nFormat settings, CABAC : Yes \r\nFormat settings, ReFrames : 5 frames \r\nCodec ID : avc1 \r\nCodec ID/Info : Advanced Video Coding \r\nDuration : 50mn 20s \r\nBit rate mode : Variable \r\nBit rate : 1 000 Kbps \r\nMaximum bit rate : 17.5 Mbps \r\nWidth : 720 pixels \r\nHeight : 576 pixels \r\nDisplay aspect ratio : 16:9 \r\nFrame rate mode : Constant \r\nFrame rate : 25.000 fps \r\nStandard : PAL \r\nColor space : YUV \r\nChroma subsampling : 4:2:0 \r\nBit depth : 8 bits \r\nScan type : Progressive \r\nBits/(Pixel*Frame) : 0.096 \r\nStream size : 360 MiB (88%) \r\nWriting library : x264 core 148 r2643 \r\n\r\n\r\nAudio \r\nID : 2 \r\nFormat : AAC \r\nFormat/Info : Advanced Audio Codec \r\nFormat profile : LC \r\nCodec ID : 40 \r\nDuration : 50mn 20s \r\nDuration_LastFrame : -5ms \r\nBit rate mode : Constant \r\nBit rate : 128 Kbps \r\nChannel(s) : 2 channels \r\nChannel positions : Front: L R \r\nSampling rate : 48.0 KHz \r\nFrame rate : 46.875 fps (1024 spf) \r\nCompression mode : Lossy \r\nStream size : 46.1 MiB (11%) \r\nLanguage : Turkish \r\nDefault : Yes","torrent":{"xt":"urn:btih:6e2fc83bf4dc2cb0316657e57f1a2c5587633e01","amp;dn":"Kara+Sevda+S01E40.DVB-T.X264.ARI+Greek+Subs","amp;tr":["udp%3A%2F%2Ftracker.leechers-paradise.org%3A6969","udp%3A%2F%2Fzer0day.ch%3A1337","udp%3A%2F%2Fopen.demonii.com%3A1337","udp%3A%2F%2Ftracker.coppersurfer.tk%3A6969","udp%3A%2F%2Fexodus.desync.com%3A6969"],"infoHash":"6e2fc83bf4dc2cb0316657e57f1a2c5587633e01","infoHashBuffer":{"type":"Buffer","data":[110,47,200,59,244,220,44,176,49,102,87,229,127,26,44,85,135,99,62,1]},"announce":[],"urlList":[]}}